<svg width="33" height="34" viewBox="0 0 33 34" fill="none" xmlns="http://www.w3.org/2000/svg">
<path d="M31.9999 17.48C32.2399 8.31997 24.8799 0.879967 15.7599 0.999967C6.99994 1.11997 -0.0800611 8.35997 -6.10723e-05 17.12C0.0399389 23.4 3.71994 28.8 8.99994 31.4C9.31994 31.56 9.67994 31.32 9.63994 30.96C9.59994 29.92 9.63994 28.84 9.83994 27.96C10.0399 27.08 10.8399 23.72 11.3599 21.52C11.5999 20.44 11.6399 19.32 11.4399 18.24C11.3599 17.88 11.3199 17.48 11.3199 17C11.3199 14.64 12.6799 12.88 14.3999 12.88C15.8399 12.88 16.5599 13.96 16.5599 15.28C16.5599 16.72 15.6399 18.92 15.1599 20.96C14.7599 22.64 15.9999 24.04 17.6799 24.04C20.7199 24.04 23.0399 20.84 23.0399 16.24C23.0399 12.16 20.1199 9.31997 15.9199 9.31997C11.0799 9.31997 8.23994 12.96 8.23994 16.72C8.23994 18.2 8.79994 19.76 9.51994 20.6C9.63994 20.76 9.67994 20.92 9.63994 21.08C9.51994 21.6 9.23994 22.76 9.15994 23C9.07994 23.32 8.91994 23.36 8.59994 23.24C6.47994 22.2 5.11994 19.08 5.11994 16.6C5.11994 11.24 8.99994 6.31997 16.3599 6.31997C22.2399 6.31997 26.8399 10.52 26.8399 16.16C26.8399 22.04 23.1599 26.72 17.9999 26.72C16.6399 26.72 15.3599 26.16 14.5999 25.4C14.3599 25.16 13.9599 25.28 13.8799 25.6C13.5999 26.6 13.1999 28.28 13.0399 28.8C12.7999 29.76 12.2799 30.88 11.7199 31.88C11.5599 32.12 11.7199 32.48 11.9999 32.52C13.3199 32.84 14.6799 33.04 16.0799 33C24.5599 32.92 31.7599 25.88 31.9999 17.48Z" fill="white"/>
</svg>
